#N canvas 273 156 567 437 10;
#X declare -path ./;
#X declare -path ./abs;
#X declare -path ./presets;
#X declare -path ./games;
#X declare -path ./abs/rjlib;
#X declare -path ./audiofiles;
#N canvas 245 182 450 300 outAudio 0;
#X obj 104 185 dac~;
#X obj 102 78 *~ 1;
#X obj 101 44 inlet~;
#X connect 1 0 0 0;
#X connect 1 0 0 1;
#X connect 2 0 1 0;
#X restore 15 395 pd outAudio;
#X obj 84 112 s RJLIB;
#X obj 15 17 loadbang;
#X obj 327 19 declare -path ./;
#X msg 84 39 \; pd dsp 1;
#X obj 15 133 print patch loadbang! PD logging is working;
#X obj 327 39 declare -path ./abs;
#X obj 84 70 samplerate~;
#X msg 84 91 sf-samplerate \$1;
#X obj 327 100 declare -path ./presets;
#X obj 327 80 declare -path ./games;
#N canvas 459 340 210 129 gameSlot 0;
#X restore 219 253 pd gameSlot;
#N canvas 292 288 394 190 dynamicPatching 0;
#X msg 217 51 \; pd-gameSlot clear \;;
#X obj 22 30 r loadGame;
#X obj 217 30 r clearGame;
#X msg 22 53 \; pd dsp 0 \; pd-gameSlot clear \; pd-gameSlot obj 50
50 \$1 \; pd-gameSlot loadbang \; pd dsp 1 \;;
#X connect 1 0 3 0;
#X connect 2 0 0 0;
#X restore 218 224 pd dynamicPatching;
#X obj 327 59 declare -path ./abs/rjlib;
#X obj 327 119 declare -path ./audiofiles;
#X obj 15 311 c_bus MASTER-0;
#X obj 15 335 c_frombus MASTER-0;
#X text 13 295 Create audio bus;
#X obj 447 381 s clearGame;
#X obj 447 360 bng 15 250 50 0 empty empty empty 17 7 0 10 -262144
-1 -1;
#N canvas 172 118 850 438 record-output~ 0;
#X obj 102 155 u_record \$0-bounce 60000;
#X msg 389 124 stop;
#X obj 102 178 unpack s f f f;
#X obj 102 287 soundfiler;
#X msg 356 124 info;
#X obj 242 45 r startExportRec;
#X obj 356 45 r endExportRec;
#X obj 356 70 t b b;
#X obj 102 204 list prepend;
#X obj 57 315 print;
#X text 227 279 \$1: size \$2: path \$3: array;
#X obj 102 228 list prepend;
#X msg 102 263 write -wave -nframes \$1 \$2 \$3;
#X msg 242 93 clear \, start;
#X obj 251 71 bng 15 250 50 0 empty empty empty 17 7 0 10 -262144 -1
-1;
#X obj 403 72 bng 15 250 50 0 empty empty empty 17 7 0 10 -262144 -1
-1;
#X obj 356 96 delay 50;
#X obj 161 92 route symbol;
#X obj 102 20 inlet~;
#X obj 709 157 s_playtable;
#X obj 709 115 pack \$0;
#X msg 709 135 \$1-bounce;
#X obj 710 323 outlet~;
#X obj 709 92 sel 1 0;
#X obj 709 72 r playExportRec;
#X msg 780 135 stop;
#X obj 102 307 / 44100;
#X floatatom 102 328 5 0 0 0 - - -;
#X obj 102 351 s exportRecDuration;
#X msg 469 73 stop \, clear;
#X obj 469 47 r cancelExportRec;
#X connect 0 0 2 0;
#X connect 1 0 0 1;
#X connect 2 0 8 0;
#X connect 2 2 11 1;
#X connect 3 0 26 0;
#X connect 4 0 0 1;
#X connect 5 0 13 0;
#X connect 5 0 14 0;
#X connect 5 0 17 0;
#X connect 6 0 7 0;
#X connect 6 0 15 0;
#X connect 7 0 16 0;
#X connect 7 1 1 0;
#X connect 8 0 11 0;
#X connect 11 0 12 0;
#X connect 12 0 9 0;
#X connect 12 0 3 0;
#X connect 13 0 0 1;
#X connect 16 0 4 0;
#X connect 17 0 8 1;
#X connect 18 0 0 0;
#X connect 19 0 22 0;
#X connect 20 0 21 0;
#X connect 21 0 19 0;
#X connect 23 0 20 0;
#X connect 23 1 25 0;
#X connect 24 0 23 0;
#X connect 25 0 19 1;
#X connect 26 0 27 0;
#X connect 27 0 28 0;
#X connect 29 0 0 1;
#X connect 30 0 29 0;
#X restore 30 365 pd record-output~;
#X connect 2 0 4 0;
#X connect 2 0 5 0;
#X connect 2 0 7 0;
#X connect 7 0 8 0;
#X connect 8 0 1 0;
#X connect 16 0 0 0;
#X connect 16 0 20 0;
#X connect 19 0 18 0;
#X connect 20 0 0 0;
